# xmcd
#
# Track frame offsets:
#	150
#	13704
#	27106
#	43778
#	64556
#	80048
#	96060
#	109661
#	126953
#	141903
#	158474
#	171370
#	189421
#	204965
#	221864
#	239131
#	255464
#	271183
#	290883
#	304757
#	318474
#
# Disc length: 4481 seconds
#
# Revision: 1
# Processed by: cddbd v1.5.2PL0 Copyright (c) Steve Scherf et al.
# Submitted via: dBpowerAMP V4.0
#
DISCID=33117f15
DTITLE=Various Artist - Hott Urban Volume 24 Can
DYEAR=2017
DGENRE=Urban
TTITLE0=Drake - Passionfruit
TTITLE1=Kendrick Lamar - Humble.
TTITLE2=Chris Brown - Privacy
TTITLE3=Mike Will Made-it ft. 21 Savage - Gucci On My
TTITLE4=Future - Mask Off
TTITLE5=Wizkid ft. Drake - Come Closer
TTITLE6=Kid Ink ft. TY Dolla $ign - F With U
TTITLE7=Trey Songz - Nobody Else But You
TTITLE8=Yfn Lucci ft. PNB Rock - Everyday We Lit
TTITLE9=Drake - Free Smoke
TTITLE10=Amine - Redmercedes
TTITLE11=Ayo and Teo - Rolex
TTITLE12=Mario - Let Me Help You
TTITLE13=Yg ft. DJ Mustard - Pop It, Shake It
TTITLE14=Sahbabii - Pull Up Wit Ah Stick
TTITLE15=Ro James - Burn Slow
TTITLE16=Goldlink ft. Brent Faiaz And Shy Glizzy - Crew
TTITLE17=A$ap Ferg ft. Remy Ma - East Coast
TTITLE18=Lil Uzi Vert - XO Tour Llif3
TTITLE19=Yo Gotti - They Like
TTITLE20=Desiigner - Up
EXTD=
EXTT0=
EXTT1=
EXTT2=
EXTT3=
EXTT4=
EXTT5=
EXTT6=
EXTT7=
EXTT8=
EXTT9=
EXTT10=
EXTT11=
EXTT12=
EXTT13=
EXTT14=
EXTT15=
EXTT16=
EXTT17=
EXTT18=
EXTT19=
EXTT20=
PLAYORDER=
